<svg width="58" height="60" viewBox="0 0 58 60" fill="none" xmlns="http://www.w3.org/2000/svg">
<path d="M0.00561523 4C0.00561523 1.79086 1.79648 0 4.00562 0H21.0056C23.2148 0 25.0056 1.79086 25.0056 4V23C25.0056 25.2091 23.2148 27 21.0056 27H4.00562C1.79648 27 0.00561523 25.2091 0.00561523 23V4Z" fill="#4C6AAB"/>
<path d="M0.00561523 37C0.00561523 34.7909 1.79648 33 4.00562 33H21.0056C23.2148 33 25.0056 34.7909 25.0056 37V56C25.0056 58.2091 23.2148 60 21.0056 60H4.00562C1.79648 60 0.00561523 58.2091 0.00561523 56V37Z" fill="#4C6AAB"/>
<path d="M33.0056 4C33.0056 1.79086 34.7965 0 37.0056 0H54.0056C56.2148 0 58.0056 1.79086 58.0056 4V23C58.0056 25.2091 56.2148 27 54.0056 27H37.0056C34.7965 27 33.0056 25.2091 33.0056 23V4Z" fill="#4C6AAB"/>
<path d="M33.0056 37C33.0056 34.7909 34.7965 33 37.0056 33H54.0056C56.2148 33 58.0056 34.7909 58.0056 37V56C58.0056 58.2091 56.2148 60 54.0056 60H37.0056C34.7965 60 33.0056 58.2091 33.0056 56V37Z" fill="#4C6AAB"/>
</svg>
